<svg xmlns="http://www.w3.org/2000/svg" viewBox="0 0 32 32" width="32" height="32">
  <!-- Light grey background -->
  <rect width="32" height="32" fill="#E8E8E8"/>
  <!-- Wine bottle silhouette -->
  <path d="M14 4 C14 3.5 14.5 3 15 3 L17 3 C17.5 3 18 3.5 18 4 L18 6 C18 6.5 17.5 7 17 7 L15 7 C14.5 7 14 6.5 14 6 Z M15 7 L17 7 L17 8 L15 8 Z M14.5 8 L17.5 8 L17.5 10 L14.5 10 Z M13 10 C12.5 10 12 10.5 12 11 L12 27 C12 27.5 12.5 28 13 28 L19 28 C19.5 28 20 27.5 20 27 L20 11 C20 10.5 19.5 10 19 10 Z" fill="#000000"/>
</svg>