<?xml version="1.0" standalone="no"?>
<!DOCTYPE svg PUBLIC "-//W3C//DTD SVG 20010904//EN"
 "http://www.w3.org/TR/2001/REC-SVG-20010904/DTD/svg10.dtd">
<svg version="1.0" xmlns="http://www.w3.org/2000/svg"
 width="200.000000pt" height="200.000000pt" viewBox="0 0 200.000000 200.000000"
 preserveAspectRatio="xMidYMid meet">

<g transform="translate(0.000000,200.000000) scale(0.100000,-0.100000)"
fill="#000000" stroke="none">
<path d="M936 1917 c-17 -12 -19 -34 -22 -213 -3 -257 -22 -352 -105 -535 -80
-176 -82 -194 -87 -641 l-3 -397 24 -25 c32 -32 106 -40 320 -34 186 4 211 12
222 72 4 19 5 200 2 403 -5 416 -10 451 -86 613 -84 179 -118 366 -108 598 5
123 4 135 -14 153 -23 23 -115 27 -143 6z"/>
</g>
</svg>
